<svg width="25" height="24" viewBox="0 0 25 24" fill="none" xmlns="http://www.w3.org/2000/svg">
<g clip-path="url(#clip0_97_64)">
<path d="M24.4991 12.073C24.4991 5.40405 19.1261 -0.00195312 12.4991 -0.00195312C5.86909 -0.000453125 0.496094 5.40405 0.496094 12.0745C0.496094 18.1 4.88509 23.095 10.6211 24.001V15.5635H7.57609V12.0745H10.6241V9.41204C10.6241 6.38655 12.4166 4.71555 15.1571 4.71555C16.4711 4.71555 17.8436 4.95105 17.8436 4.95105V7.92105H16.3301C14.8406 7.92105 14.3756 8.85254 14.3756 9.80804V12.073H17.7026L17.1716 15.562H14.3741V23.9995C20.1101 23.0935 24.4991 18.0985 24.4991 12.073Z" fill="#1F2937"/>
</g>
<defs>
<clipPath id="clip0_97_64">
<rect width="24" height="24" fill="white" transform="translate(0.5)"/>
</clipPath>
</defs>
</svg>
